<?xml version="1.0" encoding="utf-8"?>
<!-- Generator: Adobe Illustrator 24.0.3, SVG Export Plug-In . SVG Version: 6.00 Build 0)  -->
<svg version="1.1" id="Layer_1" xmlns="http://www.w3.org/2000/svg" xmlns:xlink="http://www.w3.org/1999/xlink" x="0px" y="0px"
	 viewBox="0 0 575.6 128.3" style="enable-background:new 0 0 575.6 128.3;" xml:space="preserve">
<style type="text/css">
	.st0{fill:#A71C20;}
	.st1{fill:#B22029;}
	.st2{font-family:'ArialMT';}
	.st3{font-size:24px;}
</style>
<title>arches-logo-tm-only</title>
<path class="st0" d="M132.4,55.6l-3.6-10c9-4.1,17.9-6.8,29.8-6.8c22.4,0,34.9,11.4,34.9,33v50.1h-11.7v-12.4
	c-5.7,7.5-15.2,14.1-29.7,14.1c-15.2,0-30.6-8.6-30.6-25.7c0-17.4,14.3-26.6,35-26.6c8.5-0.1,17,1.1,25.2,3.5v-2.8
	c0-14.7-9-22.3-24.4-22.3C147.5,49.6,139.9,52.1,132.4,55.6 M133.7,97.4c0,10.5,9.5,16.5,20.6,16.5c15.1,0,27.4-9.2,27.4-22.2v-7.9
	c-7.8-2.3-15.9-3.5-24.1-3.5C142.3,80.3,133.7,87,133.7,97.4 M213.5,121.9h-12.2v-82h12.2v21.4c6-13.6,17.9-23.5,33.4-22.8v13.2h-1
	c-17.9,0-32.5,12.8-32.5,37.6L213.5,121.9z M283.8,123.8c-23.9,0-42-19.5-42-42.6c0-23.3,18.1-43,42-43c15.5,0,25.2,6.5,32.8,14.6
	l-8.1,8.6c-6.5-6.8-13.7-12.3-24.8-12.3c-16.6,0-29.3,14.1-29.3,31.9c0,17.9,13,32,30.1,32c10.5,0,18.5-5.2,25-12.2l7.8,7.3
	C309.1,117.1,299.2,123.8,283.8,123.8 M334.7,121.9h-12.2V6.2h12.2v48c5.4-8.9,14-16,28.1-16c19.8,0,31.4,13.3,31.4,32.8v50.9H382
	V74c0-15.2-8.2-24.7-22.7-24.7c-14.1,0-24.6,10.3-24.6,25.7L334.7,121.9L334.7,121.9z M441.4,113.2c11.2,0,19.2-4.6,25.8-11.6
	l7.6,6.8c-8.2,9.2-18.2,15.4-33.8,15.4c-22.5,0-40.9-17.3-40.9-42.8c0-23.8,16.6-42.8,39.3-42.8c24.2,0,38.2,19.3,38.2,43.4
	c0,1.3,0,2.5-0.2,3.8h-65C414.3,103.2,427,113.2,441.4,113.2 M465.3,76.4c-1.3-14.9-9.8-27.9-26.1-27.9c-14.3,0-25,11.9-26.6,27.9
	H465.3z M511.3,123.5c-12.3-0.2-24.2-4.4-33.9-12l6.2-8.7c8.9,6.7,18.7,10.5,28.4,10.5c9.8,0,17-5.1,17-13v-0.3
	c0-8.2-9.7-11.4-20.5-14.4c-12.8-3.7-27.1-8.1-27.1-23.1V62c0-14.1,11.7-23.5,27.9-23.5c10.5,0.2,20.7,3.3,29.5,9l-5.5,9.2
	c-7.6-4.9-16.3-7.9-24.2-7.9c-9.7,0-15.9,5.1-15.9,11.9V61c0,7.8,10.1,10.8,21.1,14.1c12.7,3.8,26.3,8.7,26.3,23.5v0.3
	C540.5,114.4,527.7,123.5,511.3,123.5 M88,57c0-4.4,3.6-7.9,7.9-7.9c1.3,0,2.5,0.3,3.6,0.9c-1.9-4.5-5.6-8-10.1-9.8
	C82.5,42.9,78,49.6,78,57v26h23.1v-5.1h-13L88,57z M62,57c0-11.5,9.3-20.9,20.9-20.9c2.2,0,4.4,0.4,6.6,1c0.8,0.2,1.5,0.5,2.2,0.9
	c0.7,0.3,1.4,0.7,2.1,1.1c1,0.6,2,1.3,2.9,2.1c-0.5-0.8-1-1.5-1.4-2.2c-0.3-0.5-0.7-0.9-1.1-1.4c-0.4-0.5-0.7-0.9-1.1-1.3
	c-4.4-4.9-10.2-8.2-16.6-9.6C62.2,29.7,52,42.4,52,57v39H101v-5H62V57z M36,57c0-18.7,15.2-33.9,33.9-33.9c2.2,0,4.4,0.2,6.6,0.6
	c2.5,0.5,4.9,1.2,7.2,2.3c3.7,1.7,7.2,4,10.1,6.9c-1.5-2.3-3.2-4.4-5.1-6.4c-0.6-0.6-1.2-1.2-1.8-1.7s-1.2-1.1-1.8-1.6
	c-6.2-5.2-13.7-8.5-21.6-9.7C42,16.7,26,35.2,26,57v52h75v-5.1H36.1L36,57z M114,55.4v-0.7c-0.1-2.2-0.3-4.4-0.6-6.5
	c-0.2-1.3-0.5-2.6-0.8-3.9c-0.1-0.4-0.2-0.9-0.3-1.3c-0.5-2-1.1-3.9-1.8-5.8c-0.4-1.2-0.9-2.3-1.4-3.4C96.2,5,62.5-8,33.8,4.8
	C13.2,14-0.1,34.5,0,57v65h114V57V55.4 M103.9,116.9H10.1V57c0-25.9,21-46.9,46.9-46.9c12.4,0,24.4,4.9,33.2,13.8
	c0.6,0.6,1.2,1.3,1.8,2s1.2,1.4,1.8,2.1c2.1,2.6,3.9,5.4,5.3,8.4c0.3,0.5,0.5,1.1,0.8,1.6s0.5,1.1,0.7,1.7
	c2.2,5.5,3.4,11.4,3.4,17.4V116.9z"/>
<text transform="matrix(1.0422 0 0 1 542 123.2168)" class="st1 st2 st3">® </text>
</svg>
